<?xml version="1.0" encoding="UTF-8" standalone="no"?>
<!-- Created with Inkscape (http://www.inkscape.org/) -->

<svg
   xmlns:dc="http://purl.org/dc/elements/1.1/"
   xmlns:cc="http://creativecommons.org/ns#"
   xmlns:rdf="http://www.w3.org/1999/02/22-rdf-syntax-ns#"
   xmlns:svg="http://www.w3.org/2000/svg"
   xmlns="http://www.w3.org/2000/svg"
   version="1.1"
   width="57"
   height="38"
   id="svg2">
  <defs
     id="defs4" />
  <metadata
     id="metadata7">
    <rdf:RDF>
      <cc:Work
         rdf:about="">
        <dc:format>image/svg+xml</dc:format>
        <dc:type
           rdf:resource="http://purl.org/dc/dcmitype/StillImage" />
        <dc:title></dc:title>
      </cc:Work>
    </rdf:RDF>
  </metadata>
  <g
     transform="translate(0,-1014.3622)"
     id="layer1">
    <g
       transform="translate(-33.936596,933.17393)"
       id="text2985"
       style="font-size:21.76000023px;font-style:normal;font-weight:normal;line-height:125%;letter-spacing:0px;word-spacing:0px;fill:#732c7b;fill-opacity:1;stroke:none;font-family:Sans">
      <path
         d="m 51.936596,109.68827 c -1.8e-5,2.3375 -0.832309,4.33854 -2.496875,6.00312 -1.664597,1.66458 -3.665637,2.49687 -6.003125,2.49688 -2.337507,-1e-5 -4.338547,-0.8323 -6.003125,-2.49688 -1.664585,-1.66458 -2.496876,-3.66562 -2.496875,-6.00312 -1e-6,-2.33749 0.83229,-4.33853 2.496875,-6.00313 1.664578,-1.66457 3.665618,-2.49686 6.003125,-2.49687 2.337488,1e-5 4.338528,0.8323 6.003125,2.49687 1.664566,1.6646 2.496857,3.66564 2.496875,6.00313 m -1.19,0 c -1.7e-5,-2.01166 -0.715433,-3.73291 -2.14625,-5.16375 -1.430847,-1.43082 -3.152095,-2.14624 -5.16375,-2.14625 -2.011674,1e-5 -3.732922,0.71543 -5.16375,2.14625 -1.430836,1.43084 -2.146252,3.15209 -2.14625,5.16375 -2e-6,2.01167 0.715414,3.73292 2.14625,5.16375 1.430828,1.43083 3.152076,2.14625 5.16375,2.14625 2.011655,0 3.732903,-0.71542 5.16375,-2.14625 1.430817,-1.43083 2.146233,-3.15208 2.14625,-5.16375 m -3.6125,-5.58875 -0.414375,0.62687 c -0.233763,-0.15582 -0.442721,-0.27978 -0.626875,-0.37187 l 0.329375,-0.65875 c 0.283321,0.14168 0.520612,0.27626 0.711875,0.40375 m 2.295,2.60312 -0.65875,0.32938 c -0.0921,-0.19124 -0.216056,-0.4002 -0.371875,-0.62688 l 0.626875,-0.41437 c 0.127485,0.19126 0.262068,0.42855 0.40375,0.71187 m 0.711875,3.19813 c -1.6e-5,-0.0212 -0.0036,0.046 -0.01062,0.20187 l -0.74375,-0.0531 c 0.01415,-0.24083 0.01415,-0.48166 0,-0.7225 l 0.74375,-0.0531 c 0.0071,0.15584 0.01061,0.22313 0.01062,0.20188 l 0,0.425 m -4.281875,-4.40938 -0.116875,2.01875 -0.425,-0.24437 -1.46625,2.52875 0,1.07312 -0.61625,0 -0.03187,0.0531 -0.085,-0.0531 -0.09562,0 0,-0.0531 -0.53125,-0.30813 0.53125,-0.92437 0,-4.845 -0.48875,0 0.903125,-1.80625 0.903125,1.80625 -0.48875,0 0,3.4 0.74375,-1.28563 -0.425,-0.24437 1.689375,-1.11563 m -5.07875,-1.13687 c -0.191257,0.0921 -0.400215,0.21605 -0.626875,0.37187 l -0.414375,-0.62687 c 0.191244,-0.12749 0.428535,-0.26207 0.711875,-0.40375 l 0.329375,0.65875 m 8.64875,8.31937 c -0.141682,0.28334 -0.276265,0.52063 -0.40375,0.71188 l -0.626875,-0.41438 c 0.155819,-0.22666 0.279777,-0.43562 0.371875,-0.62687 l 0.65875,0.32937 m -10.954375,-6.26875 c -0.155838,0.22668 -0.279796,0.43564 -0.371875,0.62688 l -0.65875,-0.32938 c 0.141663,-0.28332 0.276246,-0.52061 0.40375,-0.71187 l 0.626875,0.41437 m 8.659375,8.87188 c -0.191263,0.1275 -0.428554,0.26208 -0.711875,0.40375 l -0.329375,-0.65875 c 0.191238,-0.0921 0.400196,-0.21604 0.626875,-0.37188 l 0.414375,0.62688 m -3.283125,1.105 c -0.14876,0.007 -0.216051,0.0106 -0.201875,0.0106 l -0.425,0 c 0.01416,0 -0.05313,-0.004 -0.201875,-0.0106 l 0.05313,-0.74375 c 0.240824,0.0142 0.481657,0.0142 0.7225,0 l 0.05313,0.74375 m -6.364375,-6.3325 -0.74375,0.0531 c -0.0071,-0.14166 -0.01063,-0.20541 -0.01062,-0.19125 l 0,-0.43562 c -3e-6,0.0213 0.0035,-0.046 0.01062,-0.20188 l 0.74375,0.0531 c -0.01417,0.24084 -0.01417,0.48167 0,0.7225 m 0.988125,2.92187 -0.626875,0.41438 c -0.127504,-0.19125 -0.262087,-0.42854 -0.40375,-0.71188 l 0.65875,-0.32937 c 0.09208,0.19125 0.216037,0.40021 0.371875,0.62687 m 2.305625,2.05063 -0.329375,0.65875 c -0.28334,-0.14167 -0.520631,-0.27625 -0.711875,-0.40375 l 0.414375,-0.62688 c 0.22666,0.15584 0.435618,0.27979 0.626875,0.37188"
         id="path3776"
         style="fill:#732c7b;fill-opacity:1" />
    </g>
    <path
       d="m 9.628807,1016.2334 c -0.593141,0 -1.089126,0.1933 -1.4375,0.5625 -0.313305,0.332 -0.462667,0.8342 -0.53125,1.4062 -0.446969,0.209 -0.90202,0.5093 -1.34375,0.9376 -0.507203,0.4858 -0.84222,0.9648 -1,1.4374 -0.225365,0.867 -0.380875,1.5166 -0.46875,1.9688 -0.551322,2.418 -1.229561,4.1994 -2,5.3438 0.02061,-0.028 0.0053,0.021 -0.03125,0.062 -0.03658,0.042 -0.08703,0.078 -0.15625,0.1563 -0.138437,0.1563 -0.357436,0.3874 -0.625,0.6875 -0.402571,0.4564 -0.656252,0.7928 -0.65625,1.1562 0,0.2325 0.135785,0.4548 0.3125,0.625 0.176715,0.1703 0.415671,0.3121 0.71875,0.4376 0.606157,0.2508 1.473844,0.4338 2.625,0.5937 1.503849,0.2059 2.950151,0.3125 4.34375,0.3125 3.464628,0 5.943801,-0.2981 7.500003,-0.9375 0.301855,-0.1227 0.542254,-0.2715 0.71875,-0.4375 0.176495,-0.166 0.281237,-0.364 0.28125,-0.5938 -2.5e-5,-0.2652 -0.108216,-0.5232 -0.3125,-0.75 -0.15457,-0.1543 -0.314209,-0.3206 -0.46875,-0.4687 -0.788496,-0.8628 -1.462347,-2.0854 -1.96875,-3.6563 -6.21e-4,0 7.17e-4,-0.029 0,-0.031 -0.02909,-0.099 -0.140116,-0.5055 -0.3125,-1.1875 -0.176635,-0.6988 -0.429523,-1.6789 -0.75,-2.9687 -0.139723,-0.5506 -0.484394,-1.114 -1,-1.6563 -0.470756,-0.4893 -0.934735,-0.8117 -1.4375,-1.0313 -0.03473,-0.5147 -0.171098,-0.9885 -0.5,-1.3437 -0.388221,-0.4099 -0.908184,-0.625 -1.500003,-0.625 z m 0,1.4687 c 0.222788,0 0.375876,0.069 0.40625,0.094 0.0025,0 -0.0029,0.028 0,0.031 -0.103742,0 -0.205925,-0.031 -0.3125,-0.031 -0.05902,0 -0.15344,0 -0.21875,0 0.05258,-0.011 0.05978,-0.094 0.125,-0.094 z m 0.875003,0.375 c 0.0021,0.017 -8.89e-4,0.045 0,0.063 -0.0064,-2e-4 -0.02404,3e-4 -0.03125,0 l 0,-0.031 0.03125,-0.031 z m -2.125003,0.375 c 0.02031,0.029 0.0039,0.071 0.03125,0.094 0.112722,0.094 0.241399,0.094 0.375,0.094 0.121339,0 0.282262,0 0.46875,-0.031 0.176897,-0.033 0.311289,-0.062 0.375,-0.062 0.07054,0 0.207223,0.03 0.40625,0.062 0.211508,0.034 0.373958,0.031 0.500003,0.031 0.124217,0 0.274734,-0.025 0.375,-0.125 0.02346,0.059 0.02468,0.136 0.0625,0.1874 l 0.03125,0.031 0.03125,0.031 c 0.28499,0.1919 0.523457,0.3474 0.75,0.4374 0.0071,0 0.02418,0 0.03125,0 0.292393,0.1503 0.590547,0.4359 0.90625,0.8438 0.328198,0.4096 0.544356,0.766 0.625,1.0938 0.178093,0.8298 0.303395,1.4656 0.375,1.875 0.348632,1.7137 0.930189,3.354 1.78125,4.9062 0.188632,0.3489 0.450099,0.7202 0.78125,1.125 0.252097,0.2975 0.502863,0.5825 0.75,0.875 -0.02016,0.037 -0.02357,0.071 -0.09375,0.125 -0.109774,0.084 -0.282622,0.1944 -0.53125,0.2812 -0.285134,0.1 -0.749582,0.1372 -1.09375,0.2188 0.177884,-0.052 0.456023,-0.1004 0.59375,-0.1562 0.199826,-0.081 0.343432,-0.1434 0.46875,-0.25 0.125317,-0.1067 0.249992,-0.2616 0.25,-0.4376 -1.9e-5,-0.1806 -0.125503,-0.3371 -0.25,-0.4374 -0.124498,-0.1004 -0.267843,-0.1656 -0.46875,-0.25 -1.368835,-0.5799 -3.497245,-0.8438 -6.375003,-0.8438 -2.547264,0 -4.517234,0.2465 -5.96875,0.75 -0.279808,0.097 -0.521617,0.1667 -0.6875,0.2812 -0.165883,0.1146 -0.281252,0.2869 -0.28125,0.5 -1e-6,0.1771 0.09255,0.3327 0.21875,0.4376 0.09956,0.083 0.229725,0.1227 0.375,0.1874 -0.11209,-0.04 -0.412797,-0.052 -0.5,-0.094 -0.205671,-0.1 -0.325472,-0.2092 -0.40625,-0.2813 -0.08078,-0.072 -0.09375,-0.1067 -0.09375,-0.094 10e-7,0.1 0.0074,0.042 0.0625,-0.031 0.05514,-0.073 0.12209,-0.1816 0.25,-0.3124 0.178403,-0.1782 0.359384,-0.3597 0.53125,-0.5313 l 0.03125,0 c 0.286232,-0.3415 0.548476,-0.7743 0.8125,-1.2813 0.764156,-1.4724 1.332822,-3.0595 1.6875,-4.75 0.250407,-1.1908 0.439644,-1.9249 0.53125,-2.1562 0.248369,-0.6138 0.587287,-1.0747 1.0625,-1.375 0.225536,-0.1192 0.437171,-0.2244 0.65625,-0.3438 0.168576,-0.097 0.302368,-0.2021 0.40625,-0.3124 0.08108,-0.086 0.130789,-0.195 0.15625,-0.3126 z m 7.500003,9.0313 c 0.064,0.1094 0.1208,0.2399 0.1875,0.3437 -0.03001,-0.051 -0.09863,-0.1074 -0.125,-0.1562 -0.0323,-0.059 -0.03095,-0.1284 -0.0625,-0.1875 z m -7.968753,1.5313 c -0.01616,0.1016 -0.02744,0.1717 -0.03125,0.1874 0.0022,-0.01 0.01766,-0.01 0.03125,-0.031 0.0034,-0.01 1.53e-4,-0.032 0,-0.031 -1.53e-4,2e-4 0.03139,-0.031 0.03125,-0.031 -1.45e-4,1e-4 0.06264,-0.031 0.0625,-0.031 -1.37e-4,10e-5 0.09388,-0.031 0.09375,-0.031 -6.8e-5,0 0.02994,0.025 0.0625,0.031 l 0,0.125 -0.125,0 0.03125,0.063 -0.1875,0 c -1e-6,0.013 -0.0031,0.038 0,0.062 7.76e-4,0.01 -0.002,0.022 0,0.031 0.002,0.01 -1.93e-4,0.031 0,0.031 1.93e-4,5e-4 0.06227,0.062 0.0625,0.062 1.13e-4,2e-4 0.06238,0.062 0.0625,0.063 0.06316,0.1427 0.108684,0.2827 0.25,0.4374 0.152738,0.1624 0.268414,0.2607 0.40625,0.3438 -2.032567,-0.06 -3.831761,-0.2212 -4.75,-0.5625 0.555192,-0.2397 1.201728,-0.4833 2.4375,-0.625 0.512606,-0.061 1.042749,-0.061 1.5625,-0.094 z m 3.500003,0.094 c 1.277672,0.08 2.668878,0.1076 3.46875,0.3437 0.116562,0.036 0.295924,0.1001 0.4375,0.1563 -1.177956,0.4249 -2.849446,0.704 -5.031251,0.75 0.226968,-0.071 0.479707,-0.095 0.656251,-0.25 0.325776,-0.2829 0.531233,-0.5219 0.53125,-0.8437 -1.2e-5,-0.053 -0.03773,-0.1022 -0.0625,-0.1563 z m -0.5625,0.2187 0.0625,0 c -0.0052,0.017 -0.04935,0.069 -0.0625,0.094 l -0.03125,0 0.03125,-0.094 z m -0.781252,0.2188 c -0.151012,0.069 -0.219993,0.25 -0.437501,0.25 -0.16757,0 -0.21862,-0.1432 -0.34375,-0.1875 0.264356,-0.017 0.610411,-0.06 0.781251,-0.062 z m 5.875002,0.1562 0.1875,0 c 0,-0.011 -0.0028,-0.02 -0.0625,0.031 -0.01652,0.014 -0.06843,0.046 -0.09375,0.062 l -0.03125,-0.094 z"
       id="path3779"
       style="font-size:20.28655624px;font-style:normal;font-variant:normal;font-weight:bold;font-stretch:normal;text-indent:0;text-align:start;text-decoration:none;line-height:125%;letter-spacing:0px;word-spacing:0px;text-transform:none;direction:ltr;block-progression:tb;writing-mode:lr-tb;text-anchor:start;baseline-shift:baseline;color:#000000;fill:#dddd00;fill-opacity:1;fill-rule:nonzero;stroke:none;stroke-width:0.5;marker:none;visibility:visible;display:inline;overflow:visible;enable-background:accumulate;font-family:Symbola;-inkscape-font-specification:Symbola Bold" />
    <g
       transform="translate(-14.936596,933.17393)"
       id="g3786"
       style="font-size:21.76000023px;font-style:normal;font-weight:normal;line-height:125%;letter-spacing:0px;word-spacing:0px;fill:#d500ec;fill-opacity:1;stroke:none;font-family:Sans">
      <path
         d="m 51.936596,109.68827 c -1.8e-5,2.3375 -0.832309,4.33854 -2.496875,6.00312 -1.664597,1.66458 -3.665637,2.49687 -6.003125,2.49688 -2.337507,-1e-5 -4.338547,-0.8323 -6.003125,-2.49688 -1.664585,-1.66458 -2.496876,-3.66562 -2.496875,-6.00312 -1e-6,-2.33749 0.83229,-4.33853 2.496875,-6.00313 1.664578,-1.66457 3.665618,-2.49686 6.003125,-2.49687 2.337488,1e-5 4.338528,0.8323 6.003125,2.49687 1.664566,1.6646 2.496857,3.66564 2.496875,6.00313 m -1.19,0 c -1.7e-5,-2.01166 -0.715433,-3.73291 -2.14625,-5.16375 -1.430847,-1.43082 -3.152095,-2.14624 -5.16375,-2.14625 -2.011674,1e-5 -3.732922,0.71543 -5.16375,2.14625 -1.430836,1.43084 -2.146252,3.15209 -2.14625,5.16375 -2e-6,2.01167 0.715414,3.73292 2.14625,5.16375 1.430828,1.43083 3.152076,2.14625 5.16375,2.14625 2.011655,0 3.732903,-0.71542 5.16375,-2.14625 1.430817,-1.43083 2.146233,-3.15208 2.14625,-5.16375 m -3.6125,-5.58875 -0.414375,0.62687 c -0.233763,-0.15582 -0.442721,-0.27978 -0.626875,-0.37187 l 0.329375,-0.65875 c 0.283321,0.14168 0.520612,0.27626 0.711875,0.40375 m 2.295,2.60312 -0.65875,0.32938 c -0.0921,-0.19124 -0.216056,-0.4002 -0.371875,-0.62688 l 0.626875,-0.41437 c 0.127485,0.19126 0.262068,0.42855 0.40375,0.71187 m 0.711875,3.19813 c -1.6e-5,-0.0212 -0.0036,0.046 -0.01062,0.20187 l -0.74375,-0.0531 c 0.01415,-0.24083 0.01415,-0.48166 0,-0.7225 l 0.74375,-0.0531 c 0.0071,0.15584 0.01061,0.22313 0.01062,0.20188 l 0,0.425 m -4.281875,-4.40938 -0.116875,2.01875 -0.425,-0.24437 -1.46625,2.52875 0,1.07312 -0.61625,0 -0.03187,0.0531 -0.085,-0.0531 -0.09562,0 0,-0.0531 -0.53125,-0.30813 0.53125,-0.92437 0,-4.845 -0.48875,0 0.903125,-1.80625 0.903125,1.80625 -0.48875,0 0,3.4 0.74375,-1.28563 -0.425,-0.24437 1.689375,-1.11563 m -5.07875,-1.13687 c -0.191257,0.0921 -0.400215,0.21605 -0.626875,0.37187 l -0.414375,-0.62687 c 0.191244,-0.12749 0.428535,-0.26207 0.711875,-0.40375 l 0.329375,0.65875 m 8.64875,8.31937 c -0.141682,0.28334 -0.276265,0.52063 -0.40375,0.71188 l -0.626875,-0.41438 c 0.155819,-0.22666 0.279777,-0.43562 0.371875,-0.62687 l 0.65875,0.32937 m -10.954375,-6.26875 c -0.155838,0.22668 -0.279796,0.43564 -0.371875,0.62688 l -0.65875,-0.32938 c 0.141663,-0.28332 0.276246,-0.52061 0.40375,-0.71187 l 0.626875,0.41437 m 8.659375,8.87188 c -0.191263,0.1275 -0.428554,0.26208 -0.711875,0.40375 l -0.329375,-0.65875 c 0.191238,-0.0921 0.400196,-0.21604 0.626875,-0.37188 l 0.414375,0.62688 m -3.283125,1.105 c -0.14876,0.007 -0.216051,0.0106 -0.201875,0.0106 l -0.425,0 c 0.01416,0 -0.05313,-0.004 -0.201875,-0.0106 l 0.05313,-0.74375 c 0.240824,0.0142 0.481657,0.0142 0.7225,0 l 0.05313,0.74375 m -6.364375,-6.3325 -0.74375,0.0531 c -0.0071,-0.14166 -0.01063,-0.20541 -0.01062,-0.19125 l 0,-0.43562 c -3e-6,0.0213 0.0035,-0.046 0.01062,-0.20188 l 0.74375,0.0531 c -0.01417,0.24084 -0.01417,0.48167 0,0.7225 m 0.988125,2.92187 -0.626875,0.41438 c -0.127504,-0.19125 -0.262087,-0.42854 -0.40375,-0.71188 l 0.65875,-0.32937 c 0.09208,0.19125 0.216037,0.40021 0.371875,0.62687 m 2.305625,2.05063 -0.329375,0.65875 c -0.28334,-0.14167 -0.520631,-0.27625 -0.711875,-0.40375 l 0.414375,-0.62688 c 0.22666,0.15584 0.435618,0.27979 0.626875,0.37188"
         id="path3788"
         style="fill:#d500ec;fill-opacity:1" />
    </g>
    <g
       transform="translate(4.063404,933.17393)"
       id="g3790"
       style="font-size:21.76000023px;font-style:normal;font-weight:normal;line-height:125%;letter-spacing:0px;word-spacing:0px;fill:#ed27ff;fill-opacity:1;stroke:none;font-family:Sans">
      <path
         d="m 51.936596,109.68827 c -1.8e-5,2.3375 -0.832309,4.33854 -2.496875,6.00312 -1.664597,1.66458 -3.665637,2.49687 -6.003125,2.49688 -2.337507,-1e-5 -4.338547,-0.8323 -6.003125,-2.49688 -1.664585,-1.66458 -2.496876,-3.66562 -2.496875,-6.00312 -1e-6,-2.33749 0.83229,-4.33853 2.496875,-6.00313 1.664578,-1.66457 3.665618,-2.49686 6.003125,-2.49687 2.337488,1e-5 4.338528,0.8323 6.003125,2.49687 1.664566,1.6646 2.496857,3.66564 2.496875,6.00313 m -1.19,0 c -1.7e-5,-2.01166 -0.715433,-3.73291 -2.14625,-5.16375 -1.430847,-1.43082 -3.152095,-2.14624 -5.16375,-2.14625 -2.011674,1e-5 -3.732922,0.71543 -5.16375,2.14625 -1.430836,1.43084 -2.146252,3.15209 -2.14625,5.16375 -2e-6,2.01167 0.715414,3.73292 2.14625,5.16375 1.430828,1.43083 3.152076,2.14625 5.16375,2.14625 2.011655,0 3.732903,-0.71542 5.16375,-2.14625 1.430817,-1.43083 2.146233,-3.15208 2.14625,-5.16375 m -3.6125,-5.58875 -0.414375,0.62687 c -0.233763,-0.15582 -0.442721,-0.27978 -0.626875,-0.37187 l 0.329375,-0.65875 c 0.283321,0.14168 0.520612,0.27626 0.711875,0.40375 m 2.295,2.60312 -0.65875,0.32938 c -0.0921,-0.19124 -0.216056,-0.4002 -0.371875,-0.62688 l 0.626875,-0.41437 c 0.127485,0.19126 0.262068,0.42855 0.40375,0.71187 m 0.711875,3.19813 c -1.6e-5,-0.0212 -0.0036,0.046 -0.01062,0.20187 l -0.74375,-0.0531 c 0.01415,-0.24083 0.01415,-0.48166 0,-0.7225 l 0.74375,-0.0531 c 0.0071,0.15584 0.01061,0.22313 0.01062,0.20188 l 0,0.425 m -4.281875,-4.40938 -0.116875,2.01875 -0.425,-0.24437 -1.46625,2.52875 0,1.07312 -0.61625,0 -0.03187,0.0531 -0.085,-0.0531 -0.09562,0 0,-0.0531 -0.53125,-0.30813 0.53125,-0.92437 0,-4.845 -0.48875,0 0.903125,-1.80625 0.903125,1.80625 -0.48875,0 0,3.4 0.74375,-1.28563 -0.425,-0.24437 1.689375,-1.11563 m -5.07875,-1.13687 c -0.191257,0.0921 -0.400215,0.21605 -0.626875,0.37187 l -0.414375,-0.62687 c 0.191244,-0.12749 0.428535,-0.26207 0.711875,-0.40375 l 0.329375,0.65875 m 8.64875,8.31937 c -0.141682,0.28334 -0.276265,0.52063 -0.40375,0.71188 l -0.626875,-0.41438 c 0.155819,-0.22666 0.279777,-0.43562 0.371875,-0.62687 l 0.65875,0.32937 m -10.954375,-6.26875 c -0.155838,0.22668 -0.279796,0.43564 -0.371875,0.62688 l -0.65875,-0.32938 c 0.141663,-0.28332 0.276246,-0.52061 0.40375,-0.71187 l 0.626875,0.41437 m 8.659375,8.87188 c -0.191263,0.1275 -0.428554,0.26208 -0.711875,0.40375 l -0.329375,-0.65875 c 0.191238,-0.0921 0.400196,-0.21604 0.626875,-0.37188 l 0.414375,0.62688 m -3.283125,1.105 c -0.14876,0.007 -0.216051,0.0106 -0.201875,0.0106 l -0.425,0 c 0.01416,0 -0.05313,-0.004 -0.201875,-0.0106 l 0.05313,-0.74375 c 0.240824,0.0142 0.481657,0.0142 0.7225,0 l 0.05313,0.74375 m -6.364375,-6.3325 -0.74375,0.0531 c -0.0071,-0.14166 -0.01063,-0.20541 -0.01062,-0.19125 l 0,-0.43562 c -3e-6,0.0213 0.0035,-0.046 0.01062,-0.20188 l 0.74375,0.0531 c -0.01417,0.24084 -0.01417,0.48167 0,0.7225 m 0.988125,2.92187 -0.626875,0.41438 c -0.127504,-0.19125 -0.262087,-0.42854 -0.40375,-0.71188 l 0.65875,-0.32937 c 0.09208,0.19125 0.216037,0.40021 0.371875,0.62687 m 2.305625,2.05063 -0.329375,0.65875 c -0.28334,-0.14167 -0.520631,-0.27625 -0.711875,-0.40375 l 0.414375,-0.62688 c 0.22666,0.15584 0.435618,0.27979 0.626875,0.37188"
         id="path3792"
         style="fill:#ed27ff;fill-opacity:1" />
    </g>
    <path
       d="m 28.62881,1016.2334 c -0.593141,0 -1.089126,0.1933 -1.4375,0.5625 -0.313305,0.332 -0.462667,0.8342 -0.53125,1.4062 -0.446969,0.209 -0.90202,0.5093 -1.34375,0.9376 -0.507203,0.4858 -0.84222,0.9648 -1,1.4374 -0.225365,0.867 -0.380875,1.5166 -0.46875,1.9688 -0.551322,2.418 -1.229561,4.1994 -2,5.3438 0.02061,-0.028 0.0053,0.021 -0.03125,0.062 -0.03658,0.042 -0.08703,0.078 -0.15625,0.1563 -0.138437,0.1563 -0.357436,0.3874 -0.625,0.6875 -0.402571,0.4564 -0.656252,0.7928 -0.65625,1.1562 0,0.2325 0.135785,0.4548 0.3125,0.625 0.176715,0.1703 0.415671,0.3121 0.71875,0.4376 0.606157,0.2508 1.473844,0.4338 2.625,0.5937 1.503849,0.2059 2.950151,0.3125 4.34375,0.3125 3.464625,0 5.943798,-0.2981 7.5,-0.9375 0.301855,-0.1227 0.542254,-0.2715 0.71875,-0.4375 0.176495,-0.166 0.281237,-0.364 0.28125,-0.5938 -2.5e-5,-0.2652 -0.108216,-0.5232 -0.3125,-0.75 -0.15457,-0.1543 -0.314209,-0.3206 -0.46875,-0.4687 -0.788496,-0.8628 -1.462347,-2.0854 -1.96875,-3.6563 -6.21e-4,0 7.17e-4,-0.029 0,-0.031 -0.02909,-0.099 -0.140116,-0.5055 -0.3125,-1.1875 -0.176635,-0.6988 -0.429523,-1.6789 -0.75,-2.9687 -0.139723,-0.5506 -0.484394,-1.114 -1,-1.6563 -0.470756,-0.4893 -0.934735,-0.8117 -1.4375,-1.0313 -0.03473,-0.5147 -0.171098,-0.9885 -0.5,-1.3437 -0.388221,-0.4099 -0.908183,-0.625 -1.5,-0.625 z m 0,1.4687 c 0.222788,0 0.375876,0.069 0.40625,0.094 0.0025,0 -0.0029,0.028 0,0.031 -0.103742,0 -0.205925,-0.031 -0.3125,-0.031 -0.05902,0 -0.15344,0 -0.21875,0 0.05258,-0.011 0.05978,-0.094 0.125,-0.094 z m 0.875,0.375 c 0.0021,0.017 -8.89e-4,0.045 0,0.063 -0.0064,-2e-4 -0.02404,3e-4 -0.03125,0 l 0,-0.031 0.03125,-0.031 z m -2.125,0.375 c 0.02031,0.029 0.0039,0.071 0.03125,0.094 0.112722,0.094 0.241399,0.094 0.375,0.094 0.121339,0 0.282262,0 0.46875,-0.031 0.176897,-0.033 0.311289,-0.062 0.375,-0.062 0.07054,0 0.207223,0.03 0.40625,0.062 0.211506,0.034 0.373955,0.031 0.5,0.031 0.124217,0 0.274734,-0.025 0.375,-0.125 0.02346,0.059 0.02468,0.136 0.0625,0.1874 l 0.03125,0.031 0.03125,0.031 c 0.28499,0.1919 0.523457,0.3474 0.75,0.4374 0.0071,0 0.02418,0 0.03125,0 0.292393,0.1503 0.590547,0.4359 0.90625,0.8438 0.328198,0.4096 0.544356,0.766 0.625,1.0938 0.178093,0.8298 0.303395,1.4656 0.375,1.875 0.348632,1.7137 0.930189,3.354 1.78125,4.9062 0.188632,0.3489 0.450099,0.7202 0.78125,1.125 0.252097,0.2975 0.502863,0.5825 0.75,0.875 -0.02016,0.037 -0.02357,0.071 -0.09375,0.125 -0.109774,0.084 -0.282622,0.1944 -0.53125,0.2812 -0.285134,0.1 -0.749582,0.1372 -1.09375,0.2188 0.177884,-0.052 0.456023,-0.1004 0.59375,-0.1562 0.199826,-0.081 0.343432,-0.1434 0.46875,-0.25 0.125317,-0.1067 0.249992,-0.2616 0.25,-0.4376 -1.9e-5,-0.1806 -0.125503,-0.3371 -0.25,-0.4374 -0.124498,-0.1004 -0.267843,-0.1656 -0.46875,-0.25 -1.368835,-0.5799 -3.497245,-0.8438 -6.375,-0.8438 -2.547264,0 -4.517234,0.2465 -5.96875,0.75 -0.279808,0.097 -0.521617,0.1667 -0.6875,0.2812 -0.165883,0.1146 -0.281252,0.2869 -0.28125,0.5 -1e-6,0.1771 0.09255,0.3327 0.21875,0.4376 0.09956,0.083 0.229725,0.1227 0.375,0.1874 -0.11209,-0.04 -0.412797,-0.052 -0.5,-0.094 -0.205671,-0.1 -0.325472,-0.2092 -0.40625,-0.2813 -0.08078,-0.072 -0.09375,-0.1067 -0.09375,-0.094 10e-7,0.1 0.0074,0.042 0.0625,-0.031 0.05514,-0.073 0.12209,-0.1816 0.25,-0.3124 0.178403,-0.1782 0.359384,-0.3597 0.53125,-0.5313 l 0.03125,0 c 0.286232,-0.3415 0.548476,-0.7743 0.8125,-1.2813 0.764156,-1.4724 1.332822,-3.0595 1.6875,-4.75 0.250407,-1.1908 0.439644,-1.9249 0.53125,-2.1562 0.248369,-0.6138 0.587287,-1.0747 1.0625,-1.375 0.225536,-0.1192 0.437171,-0.2244 0.65625,-0.3438 0.168576,-0.097 0.302368,-0.2021 0.40625,-0.3124 0.08108,-0.086 0.130789,-0.195 0.15625,-0.3126 z m 7.5,9.0313 c 0.064,0.1094 0.1208,0.2399 0.1875,0.3437 -0.03001,-0.051 -0.09863,-0.1074 -0.125,-0.1562 -0.0323,-0.059 -0.03095,-0.1284 -0.0625,-0.1875 z m -7.96875,1.5313 c -0.01616,0.1016 -0.02744,0.1717 -0.03125,0.1874 0.0022,-0.01 0.01766,-0.01 0.03125,-0.031 0.0034,-0.01 1.53e-4,-0.032 0,-0.031 -1.53e-4,2e-4 0.03139,-0.031 0.03125,-0.031 -1.45e-4,1e-4 0.06264,-0.031 0.0625,-0.031 -1.37e-4,10e-5 0.09388,-0.031 0.09375,-0.031 -6.8e-5,0 0.02994,0.025 0.0625,0.031 l 0,0.125 -0.125,0 0.03125,0.063 -0.1875,0 c -1e-6,0.013 -0.0031,0.038 0,0.062 7.76e-4,0.01 -0.002,0.022 0,0.031 0.002,0.01 -1.93e-4,0.031 0,0.031 1.93e-4,5e-4 0.06227,0.062 0.0625,0.062 1.13e-4,2e-4 0.06238,0.062 0.0625,0.063 0.06316,0.1427 0.108684,0.2827 0.25,0.4374 0.152738,0.1624 0.268414,0.2607 0.40625,0.3438 -2.032567,-0.06 -3.831761,-0.2212 -4.75,-0.5625 0.555192,-0.2397 1.201728,-0.4833 2.4375,-0.625 0.512606,-0.061 1.042749,-0.061 1.5625,-0.094 z m 3.5,0.094 c 1.277672,0.08 2.668878,0.1076 3.46875,0.3437 0.116562,0.036 0.295924,0.1001 0.4375,0.1563 -1.177956,0.4249 -2.849446,0.704 -5.03125,0.75 0.226967,-0.071 0.479706,-0.095 0.65625,-0.25 0.325776,-0.2829 0.531233,-0.5219 0.53125,-0.8437 -1.2e-5,-0.053 -0.03773,-0.1022 -0.0625,-0.1563 z m -0.5625,0.2187 0.0625,0 c -0.0052,0.017 -0.04935,0.069 -0.0625,0.094 l -0.03125,0 0.03125,-0.094 z m -0.78125,0.2188 c -0.151011,0.069 -0.219992,0.25 -0.4375,0.25 -0.16757,0 -0.21862,-0.1432 -0.34375,-0.1875 0.264356,-0.017 0.610411,-0.06 0.78125,-0.062 z m 5.875,0.1562 0.1875,0 c 0,-0.011 -0.0028,-0.02 -0.0625,0.031 -0.01652,0.014 -0.06843,0.046 -0.09375,0.062 l -0.03125,-0.094 z"
       id="path3796"
       style="font-size:20.28655624px;font-style:normal;font-variant:normal;font-weight:bold;font-stretch:normal;text-indent:0;text-align:start;text-decoration:none;line-height:125%;letter-spacing:0px;word-spacing:0px;text-transform:none;direction:ltr;block-progression:tb;writing-mode:lr-tb;text-anchor:start;baseline-shift:baseline;color:#000000;fill:#ffff00;fill-opacity:1;fill-rule:nonzero;stroke:none;stroke-width:0.5;marker:none;visibility:visible;display:inline;overflow:visible;enable-background:accumulate;font-family:Symbola;-inkscape-font-specification:Symbola Bold" />
  </g>
</svg>
