<?xml version="1.0" encoding="UTF-8" standalone="no"?>
<!-- Created with Inkscape (http://www.inkscape.org/) -->

<svg
   xmlns:dc="http://purl.org/dc/elements/1.1/"
   xmlns:cc="http://creativecommons.org/ns#"
   xmlns:rdf="http://www.w3.org/1999/02/22-rdf-syntax-ns#"
   xmlns:svg="http://www.w3.org/2000/svg"
   xmlns="http://www.w3.org/2000/svg"
   xmlns:sodipodi="http://sodipodi.sourceforge.net/DTD/sodipodi-0.dtd"
   xmlns:inkscape="http://www.inkscape.org/namespaces/inkscape"
   width="3537.6909"
   height="4055.5771"
   id="svg3956"
   version="1.1"
   inkscape:version="0.48.4 r9939"
   sodipodi:docname="berry_punch_cutie_mark_by_hawk9mm-d5jgrzl.svg"
   inkscape:export-filename="C:\Documents and Settings\Hawk\Pulpit\Berry Punch.png"
   inkscape:export-xdpi="90"
   inkscape:export-ydpi="90">
  <defs
     id="defs3" />
  <sodipodi:namedview
     inkscape:document-units="mm"
     id="base"
     pagecolor="#ffffff"
     bordercolor="#666666"
     borderopacity="1.0"
     inkscape:pageopacity="0.0"
     inkscape:pageshadow="2"
     inkscape:zoom="0.12374369"
     inkscape:cx="1820.3782"
     inkscape:cy="1010.6659"
     inkscape:current-layer="layer1"
     showgrid="false"
     inkscape:window-width="1600"
     inkscape:window-height="1138"
     inkscape:window-x="1272"
     inkscape:window-y="-8"
     inkscape:window-maximized="1"
     units="mm"
     fit-margin-top="0"
     fit-margin-left="0"
     fit-margin-right="0"
     fit-margin-bottom="0" />
  <metadata
     id="metadata4">
    <rdf:RDF>
      <cc:Work
         rdf:about="">
        <dc:format>image/svg+xml</dc:format>
        <dc:type
           rdf:resource="http://purl.org/dc/dcmitype/StillImage" />
        <dc:title></dc:title>
      </cc:Work>
    </rdf:RDF>
  </metadata>
  <g
     inkscape:label="Layer 1"
     inkscape:groupmode="layer"
     id="layer1"
     transform="translate(1218.1594,1677.1027)">
    <path
       style="fill:#fd022a;fill-opacity:1;stroke:none;display:inline"
       d="m 758.92305,2346.1627 62.48913,-1.1576 97.20572,-47.4452 145.8087,-89.1052 195.5688,-87.9486 230.2858,-67.1182 204.8262,-70.5897 193.254,-106.4639 151.5951,-175.8962 67.1182,-152.7517 33.5592,-243.0143 2.314,-173.5813 -216.3983,-127.2932 -405.0242,-388.82393 -178.2103,-122.66423 -163.7457,-1.15658 -157.9591,39.34475 -182.26105,123.82171 -4.6291,130.76485 -35.87317,105.88468 -104.72806,101.8348 -63.06743,16.77955 84.47609,142.9153 41.08135,174.1604 -61.33256,119.1926 -95.46989,60.1751 -2.31408,188.6258 23.7227,225.0774 48.02464,221.6058 50.33859,170.6888 z"
       id="path3952"
       inkscape:connector-curvature="0" />
    <path
       style="fill:#b43ae1;fill-opacity:1;stroke:none;display:inline"
       d="m -341.58518,2303.3454 85.63355,-25.4585 130.76485,-114.5636 112.24952,-166.6388 38.188163,40.5022 116.878587,53.232 134.23636,13.8862 81.00452,-46.2878 90.26266,-159.696 19.67276,-144.651 -11.57223,-111.092 -90.2625,-93.7342 9.25815,-28.9301 164.32393,6.9432 92.57658,-32.4026 87.94861,-63.6467 39.34472,-121.5066 -47.44529,-133.0799 -57.86102,-108.777 -25.45856,-54.3894 109.93545,-48.6029 78.69042,-102.99138 18.5153,-131.92236 -11.57207,-131.92234 -79.8481,-186.31086 31.24529,-38.18817 107.62026,-78.6904 L 938.29075,117.37274 916.3039,9.752273 879.27318,-78.19534 740.40775,-192.75985 592.285,-245.99088 l 55.54613,-182.83928 -41.6598,-173.58213 -56.70358,-109.93544 -158.5383,-82.16196 -188.62486,-5.78562 -126.135824,77.53297 -89.106026,133.07891 -185.15339,-90.26166 -100.67731,-24.30194 3.47158,-200.19707 11.5722,-197.8832 106.46295,-329.8054 63.64665,-162.0098 -196.72557,-42.8173 -140.02298,1.1576 -143.49363,35.8739 -8.10063,201.3548 23.14441,268.4728 98.36232,267.31532 105.30638,180.5252 -119.19265,39.34571 -98.36325,71.74718 -97.20574,124.97838 -15.04378,71.74726 -135.393,-64.80414 -159.6958,28.93096 -104.1489,59.01759 -83.3195,156.22333 52.0745,218.713371 89.106,96.048249 164.32398,79.84791 90.26261,5.78564 -5.78656,150.43769 38.18816,131.92234 116.87859,101.83391 140.02205,60.17507 129.60827,-1.15658 -27.77346,136.55048 27.77346,165.48145 102.99139,128.44988 57.861,46.2888 -130.76485,12.7297 -119.19355,90.2626 -24.30099,74.0614 28.93005,173.5811 97.20573,145.8086 74.06135,63.6467 -102.9914,23.1444 -174.73865,120.3501 -77.53383,102.9913 -25.45847,89.106 55.54601,163.1665 124.97921,93.7342 z"
       id="path3954"
       inkscape:connector-curvature="0" />
    <path
       style="font-size:medium;font-style:normal;font-variant:normal;font-weight:normal;font-stretch:normal;text-indent:0;text-align:start;text-decoration:none;line-height:normal;letter-spacing:normal;word-spacing:normal;text-transform:none;direction:ltr;block-progression:tb;writing-mode:lr-tb;text-anchor:start;baseline-shift:baseline;color:#000000;fill:#a61357;fill-opacity:1;stroke:none;stroke-width:6.84456348;marker:none;visibility:visible;display:inline;overflow:visible;enable-background:accumulate;font-family:Sans;-inkscape-font-specification:Sans"
       d="m 1235.064,453.26804 c -152.8625,1.98965 -310.23417,76.83732 -417.56337,179.57027 l 43.24532,45.25045 C 988.47723,555.82777 1208.5892,479.14443 1367.9928,536.32357 l 16.2837,-58.99833 c -47.9138,-17.18646 -98.2579,-24.72072 -149.2125,-24.0572 z m 879.8062,675.32086 c 23.2314,245.7592 -20.4005,436.7018 -119.4264,580.2358 -99.0258,143.5349 -254.9164,241.8578 -463.9603,297.2791 -483.018,128.0578 -483.3342,190.4863 -677.89785,285.2496 -32.57392,15.8651 -57.12154,22.8311 -73.6032,24.0573 -16.48152,1.2253 -24.03145,-1.4838 -31.79017,-7.7332 -15.51685,-12.4987 -31.1701,-52.0094 -44.67779,-110.8354 -46.86336,-204.0884 -76.05005,-446.3128 -74.46274,-682.1925 l -62.72005,-0.5774 c -1.624,241.3144 28.16748,487.7042 76.18116,696.8001 14.00997,61.0136 26.04858,113.1825 66.15773,145.4888 20.05399,16.1536 47.21982,23.8986 75.89424,21.7661 28.6743,-2.1327 59.71505,-12.4338 96.51482,-30.358 204.08655,-99.4015 188.19865,-154.4482 666.44205,-281.2401 219.4172,-58.1708 390.5221,-164.2744 499.4733,-322.1951 100.4116,-145.542 146.9918,-333.3401 134.7212,-562.4197 z"
       id="path3004-4"
       inkscape:connector-curvature="0"
       sodipodi:nodetypes="sccccscsssccsccscscsscc" />
    <path
       style="fill:#4dc42e;fill-opacity:1;stroke:#000000;stroke-width:9.1646471px;stroke-linecap:butt;stroke-linejoin:miter;stroke-opacity:1;display:inline"
       d="m 2007.2269,1426.2813 42.5505,-162.0181 21.2747,-221.7514 121.923,159.5629 96.5559,229.9346 0,-199.6583 -54.8248,-252.84616 -68.7349,-121.92282 -98.1919,-130.92338 -87.5553,-85.10018 86.737,-121.10439 119.4675,-220.93398 12.2743,-45.00483 -142.3792,-122.74029 -245.4825,-63.825347 -43.3679,4.091088 -18.0021,216.023569 -130.9235,-188.202445 -123.5587,-119.467587 -4.9103,44.186425 54.0063,254.483017 0,110.46699 -223.3883,-108.83019 -217.6604,-22.91163 170.2004,139.10561 175.1106,208.65978 28.6396,72.82595 -166.1091,111.28539 -123.5597,147.28871 -29.4579,57.27904 184.1114,-33.54902 342.0383,-4.09111 66.2797,37.64013 116.1948,171.01876 67.9165,131.7418 z"
       id="path3950"
       inkscape:connector-curvature="0" />
    <path
       style="font-size:medium;font-style:normal;font-variant:normal;font-weight:normal;font-stretch:normal;text-indent:0;text-align:start;text-decoration:none;line-height:normal;letter-spacing:normal;word-spacing:normal;text-transform:none;direction:ltr;block-progression:tb;writing-mode:lr-tb;text-anchor:start;baseline-shift:baseline;color:#000000;fill:#337e10;fill-opacity:1;stroke:none;stroke-width:6.84456348;marker:none;visibility:visible;display:inline;overflow:visible;enable-background:accumulate;font-family:Sans;-inkscape-font-specification:Sans"
       d="m 1731.1005,44.009723 1.7193,34.0815 c 8.4601,190.549517 -44.969,574.605047 -101.6707,763.242797 l -23.4844,77.89952 69.5936,-42.10055 c 275.284,-166.26137 441.824,-327.33647 559.0435,-597.70638 l 7.733,-18.04245 -12.6013,-14.89254 C 2117.1631,113.07634 1932.4764,52.132348 1765.1821,45.441248 l -34.0816,-1.431525 z m 64.4396,66.729627 c 137.6978,11.9388 281.8303,64.9746 374.3181,162.38655 -101.8259,225.68311 -237.3682,366.04976 -460.2367,509.49756 48.7456,-197.006 88.2288,-485.0032 85.9186,-671.88411 z"
       id="path3000-1"
       inkscape:connector-curvature="0" />
    <path
       style="font-size:medium;font-style:normal;font-variant:normal;font-weight:normal;font-stretch:normal;text-indent:0;text-align:start;text-decoration:none;line-height:normal;letter-spacing:normal;word-spacing:normal;text-transform:none;direction:ltr;block-progression:tb;writing-mode:lr-tb;text-anchor:start;baseline-shift:baseline;color:#000000;fill:#337e10;fill-opacity:1;stroke:none;stroke-width:6.84456348;marker:none;visibility:visible;display:inline;overflow:visible;enable-background:accumulate;font-family:Sans;-inkscape-font-specification:Sans"
       d="m 1392.5823,-134.70089 c 72.6693,137.2305006 111.0746,327.69845 120.286,479.71246 -158.2615,-97.57691 -345.2588,-144.499 -554.78642,-102.45067 117.62262,42.83922 231.38532,120.95775 313.22662,194.61128 74.1786,66.75711 134.7129,141.90722 177.6932,223.73287 -134.1081,74.3766 -247.5719,193.46845 -320.1897,316.46717 l -37.5175,63.00698 71.598,-16.6119 c 142.8841,-33.41061 369.2444,-52.48131 553.8893,-14.3188 147.0651,174.8413 233.3062,360.9551 270.643,568.2081 62.6797,-145.8791 101.7019,-313.1193 109.9758,-451.6457 111.7289,148.2785 153.1227,263.2801 201.9036,430.787 26.5122,-177.3094 31.0425,-344.4405 -11.356,-504.1821 -60.2585,-227.03121 -182.8063,-354.24201 -289.3536,-438.39271 l -38.6638,49.25996 c 128.6972,101.64419 275.7845,255.47005 299.8562,600.85625 -63.7593,-126.77 -123.2378,-205.947 -221.3838,-307.58754 15.4909,142.55054 -8.6304,309.98684 -42.097,411.83544 -41.141,-119.6463 -115.306,-273.3686 -239.7132,-409.25834 l -6.8736,-7.44626 -9.7374,-2.00433 c -171.3532,-37.58055 -365.7105,-26.93213 -515.7973,-0.86147 71.9122,-99.71594 170.3039,-192.66838 280.9533,-247.44548 l 27.7798,-13.74696 -13.1731,-27.77987 C 1452.0975,516.00006 1335.8889,394.90115 1193.54,296.89533 c 174.0192,31.54472 266.1175,72.79663 385.2011,177.27819 1.8613,-141.71386 -16.2005,-292.13687 -48.4031,-411.550385 92.0855,87.270355 150.5256,171.005905 184.7245,264.236935 1.4772,4.02695 7.8275,21.37928 9.2142,25.44289 l 54.6524,-33.64159 C 1681.4512,95.788148 1551.2645,-16.076452 1392.5823,-134.70271 z"
       id="path3002-7"
       inkscape:connector-curvature="0"
       sodipodi:nodetypes="cccsccccccccscccccccccccccccscccc" />
    <path
       style="fill:#ffffff;fill-opacity:1;stroke:none;display:inline"
       d="m 1124.7281,1841.5975 c -39.8734,102.4599 87.384,148.6241 95.7276,28.6331 6.0889,-87.6012 -64.7401,-108.2555 -95.7276,-28.6331 z"
       id="path3794-0"
       inkscape:connector-curvature="0"
       sodipodi:nodetypes="sss" />
    <path
       style="fill:#ffffff;fill-opacity:1;stroke:none;display:inline"
       d="m 1411.2324,1833.6187 c 82.654,96.25 152.5877,-25.4804 71.4549,-88.3801 -81.4956,-63.1711 -130.5824,19.5253 -71.4549,88.3801 z"
       id="path3796-9"
       inkscape:connector-curvature="0"
       sodipodi:nodetypes="sss" />
    <path
       style="fill:#ffffff;fill-opacity:1;stroke:none;display:inline"
       d="m 1332.345,1475.4038 c -42.7338,87.3171 86.5445,117.1298 116.7328,22.1684 30.1848,-94.9658 -74.0017,-109.4899 -116.7328,-22.1684 z"
       id="path3798-4"
       inkscape:connector-curvature="0"
       sodipodi:nodetypes="zzz" />
    <path
       style="fill:#ffffff;fill-opacity:1;stroke:none;display:inline"
       d="m 1374.791,1236.8536 c 113.1989,-9.9363 78.4192,-113.8551 -19.6462,-94.4893 -98.0645,19.3667 -93.5527,104.4293 19.6462,94.4893 z"
       id="path3800-8"
       inkscape:connector-curvature="0"
       sodipodi:nodetypes="zzz" />
    <path
       style="fill:#ffffff;fill-opacity:1;stroke:none;display:inline"
       d="m 936.3396,1491.1533 c 26.20723,85.3769 113.8597,53.8121 105.4915,-20.4371 -8.3719,-74.2529 -131.69507,-64.9445 -105.4915,20.4371 z"
       id="path3802-8"
       inkscape:connector-curvature="0"
       sodipodi:nodetypes="zzz" />
    <path
       style="fill:#ffffff;fill-opacity:1;stroke:none;display:inline"
       d="m 1798.8281,1587.3941 c 19.8682,-80.814 -67.2647,-113.5748 -90.2442,-29.8456 -22.9793,83.7291 70.3808,110.6649 90.2442,29.8456 z"
       id="path3804-2"
       inkscape:connector-curvature="0"
       sodipodi:nodetypes="zzz" />
    <path
       style="fill:#ffffff;fill-opacity:1;stroke:none;display:inline"
       d="m 821.89805,2005.8904 c -35.31503,70.5228 13.2941,148.0886 68.93005,49.7686 55.63935,-98.3202 -33.61429,-120.287 -68.93005,-49.7686 z"
       id="path3806-4"
       inkscape:connector-curvature="0"
       sodipodi:nodetypes="zzz" />
    <path
       style="fill:#ffffff;fill-opacity:1;stroke:none;display:inline"
       d="m 952.99173,728.77384 c -67.80925,82.04376 -0.45825,169.94646 89.60937,81.80912 101.021,-91.67487 -21.8011,-163.8538 -89.60937,-81.80912 z"
       id="path3808-5"
       inkscape:connector-curvature="0"
       sodipodi:nodetypes="zcz" />
    <path
       style="font-size:medium;font-style:normal;font-variant:normal;font-weight:normal;font-stretch:normal;text-indent:0;text-align:start;text-decoration:none;line-height:normal;letter-spacing:normal;word-spacing:normal;text-transform:none;direction:ltr;block-progression:tb;writing-mode:lr-tb;text-anchor:start;baseline-shift:baseline;color:#000000;fill:#7a198d;fill-opacity:1;stroke:none;stroke-width:6.84456348;marker:none;visibility:visible;display:inline;overflow:visible;enable-background:accumulate;font-family:Sans;-inkscape-font-specification:Sans"
       d="m -231.2795,1099.9494 c -59.95145,-1.251 -119.94506,11.0333 -170.11784,36.9445 -50.17368,25.9112 -91.51541,66.8625 -106.25308,122.0044 -24.3413,91.0717 -2.52395,185.4502 44.39172,266.6335 46.91475,81.1841 119.07077,150.4211 201.04854,195.0355 l 36.92528,-51.4081 c -6.75528,-3.4221 -14.08058,-7.6231 -20.02934,-11.0617 -66.13394,-39.1258 -125.40995,-98.1039 -163.5303,-164.0683 -40.63513,-70.3176 -57.21948,-147.2375 -38.0901,-218.8059 9.21963,-34.4958 35.52584,-62.3737 74.46275,-82.4819 38.93691,-20.109 89.69805,-31.1222 140.0468,-30.0719 232.18359794,4.8288 338.91606,110.3616 370.88236,225.6795 31.96614,115.3177 -15.93916,243.027 -108.257474,294.1273 -44.964513,24.9087 -95.206938,31.5723 -147.493096,23.4854 l -9.45149,61.8613 c 63.534836,9.8272 128.9007607,1.9925 187.302473,-30.3588 C 182.55664,1669.9345 238.19701,1513.5526 198.88699,1371.738 159.5763,1229.9233 20.329491,1105.1815 -231.2795,1099.9494 z"
       id="path3764-5"
       inkscape:connector-curvature="0"
       sodipodi:nodetypes="cssccccccccsccccsc" />
    <path
       style="font-size:medium;font-style:normal;font-variant:normal;font-weight:normal;font-stretch:normal;text-indent:0;text-align:start;text-decoration:none;line-height:normal;letter-spacing:normal;word-spacing:normal;text-transform:none;direction:ltr;block-progression:tb;writing-mode:lr-tb;text-anchor:start;baseline-shift:baseline;color:#000000;fill:#7a198d;fill-opacity:1;stroke:none;stroke-width:6.84456348;marker:none;visibility:visible;display:inline;overflow:visible;enable-background:accumulate;font-family:Sans;-inkscape-font-specification:Sans"
       d="m 229.81766,1497.1791 c -20.50758,2.0676 -40.76158,6.3565 -60.1439,12.8882 l 20.04868,59.5703 c 60.90189,-20.5215 125.9727,-15.8283 188.44711,29.2114 31.13598,22.4478 50.61456,61.7797 57.85273,112.2667 7.23734,50.4881 1.4801,110.5377 -15.17938,166.9691 -16.65946,56.4313 -44.02781,109.3516 -77.32666,146.0615 -33.29886,36.7099 -70.35521,56.7814 -110.26173,56.1335 -114.95129,-1.8632 -183.774119,-56.0391 -215.533282,-128.0723 -2.336062,-5.5034 -4.556662,-10.663 -7.031112,-16.3497 l -54.953063,30.7225 c 38.6638127,98.2671 135.777012,174.1402 276.371787,176.4195 61.87062,1.0044 116.23988,-30.9325 157.8034,-76.7539 41.56354,-45.8205 72.1606,-106.3401 91.07358,-170.4046 18.91313,-64.0647 26.03678,-131.85 17.18376,-193.6033 -8.85303,-61.7531 -34.3481,-118.7591 -83.34149,-154.0806 -58.60871,-42.2526 -123.489,-57.181 -185.01043,-50.9783 z m -269.211432,220.8102 c -8.999675,23.7906 -15.583562,49.0034 -19.188937,74.7497 -2.41305,17.3046 -3.482563,34.6276 -3.436738,52.1239 l 62.72101257,0 c 0,-14.4279 0.84314993,-29.0557 2.86303743,-43.5321 2.9363379,-20.966 8.341663,-41.4105 15.752188,-61.0017 z"
       id="path3768-1"
       inkscape:connector-curvature="0"
       sodipodi:nodetypes="sccccsscccccsssssccccccc" />
    <path
       style="font-size:medium;font-style:normal;font-variant:normal;font-weight:normal;font-stretch:normal;text-indent:0;text-align:start;text-decoration:none;line-height:normal;letter-spacing:normal;word-spacing:normal;text-transform:none;direction:ltr;block-progression:tb;writing-mode:lr-tb;text-anchor:start;baseline-shift:baseline;color:#000000;fill:#7a198d;fill-opacity:1;stroke:none;stroke-width:6.84456348;marker:none;visibility:visible;display:inline;overflow:visible;enable-background:accumulate;font-family:Sans;-inkscape-font-specification:Sans"
       d="m -294.85831,1666.4382 c -91.86093,8.4158 -194.09439,52.3888 -292.12312,141.1932 -74.44627,67.4426 -106.06613,149.2252 -103.10229,226.5383 2.96294,77.3139 39.00475,149.3205 93.65079,203.0547 54.64604,53.7341 128.40311,89.643 209.06851,93.6507 80.66539,4.0086 167.34645,-25.024 243.43594,-97.3744 96.336021,-91.6024 145.6555705,-187.0606 155.798996,-274.6524 10.143425,-87.5921 -20.0119252,-166.7895 -76.753913,-220.2386 -56.742003,-53.4481 -138.114903,-80.5865 -229.974913,-72.1715 z m 4.0086,61.5753 c 76.17015,-7.1557 140.4015,16.2876 183.00703,56.4195 42.605521,40.1329 65.351258,97.5467 57.279045,167.255 -8.072224,69.7089 -48.287624,152.2924 -136.610075,236.2763 -65.20646,62.0008 -133.23931,83.6476 -197.0399,80.4775 -63.80153,-3.1709 -123.93536,-32.1715 -168.4004,-75.8952 -44.46595,-43.7235 -72.76821,-101.7789 -75.03646,-160.9541 -2.26734,-59.1751 20.03851,-120.4499 82.76868,-177.2791 89.80438,-81.3527 177.86287,-119.144 254.03208,-126.2999 z"
       id="path3766-7"
       inkscape:connector-curvature="0" />
    <path
       style="font-size:medium;font-style:normal;font-variant:normal;font-weight:normal;font-stretch:normal;text-indent:0;text-align:start;text-decoration:none;line-height:normal;letter-spacing:normal;word-spacing:normal;text-transform:none;direction:ltr;block-progression:tb;writing-mode:lr-tb;text-anchor:start;baseline-shift:baseline;color:#000000;fill:#7a198d;fill-opacity:1;stroke:none;stroke-width:6.84456348;marker:none;visibility:visible;display:inline;overflow:visible;enable-background:accumulate;font-family:Sans;-inkscape-font-specification:Sans"
       d="m 283.94592,825.29591 c -67.60563,1.58821 -127.72847,23.11139 -174.12828,61.00173 -74.240012,60.62597 -111.3247496,161.20706 -95.083174,274.36756 2.815387,19.4794 9.72645,50.8326 14.89255,69.0207 l 60.42985,-16.8977 c -3.707088,-13.0496 -11.2221,-47.4949 -13.175088,-61.0018 -13.6535,-95.1308 16.600838,-170.9527 72.745272,-216.80068 56.1436,-45.84888 140.45103,-63.41477 243.72188,-30.35881 104.83442,33.55544 202.64595,117.80969 262.33808,213.07799 59.69212,95.2693 79.44017,198.5962 44.67758,270.9309 -31.48516,65.5098 -94.79456,98.409 -171.55031,106.8249 -76.75657,8.416 -164.41919,-10.4834 -229.68983,-46.9688 -34.99337,-19.5629 -69.44056,-44.1571 -100.23746,-73.3172 l -43.24611,45.5373 c 34.81646,32.9652 73.44736,60.4592 112.8397,82.4819 77.67039,43.4165 175.44075,64.7307 266.92045,54.701 91.4797,-10.0297 178.98287,-54.1155 221.38397,-142.3389 48.2509,-100.4014 18.92865,-224.3561 -48.11441,-331.3588 C 641.6266,977.19442 535.14263,884.30065 412.53691,845.05671 367.81253,830.74061 324.50966,824.34277 283.94592,825.29591 z"
       id="path3770-1"
       inkscape:connector-curvature="0" />
    <path
       style="font-size:medium;font-style:normal;font-variant:normal;font-weight:normal;font-stretch:normal;text-indent:0;text-align:start;text-decoration:none;line-height:normal;letter-spacing:normal;word-spacing:normal;text-transform:none;direction:ltr;block-progression:tb;writing-mode:lr-tb;text-anchor:start;baseline-shift:baseline;color:#000000;fill:#7a198d;fill-opacity:1;stroke:none;stroke-width:6.84456348;marker:none;visibility:visible;display:inline;overflow:visible;enable-background:accumulate;font-family:Sans;-inkscape-font-specification:Sans"
       d="m -126.45791,444.67711 c -40.1714,1.60381 -80.26216,11.45214 -117.7089,29.49824 l 27.208,56.42032 c 78.99926,-38.07086 172.690363,-29.34155 240.857926,23.19757 56.498224,43.5458 96.226914,117.148 96.454294,226.07991 0.0913,41.53052 -10.39818,85.29905 -18.55478,120.41796 l 67.01641,1.18593 c 2.84385,-12.82134 5.26797,-25.83332 7.44629,-39.52255 l 0,-0.2841 C 202.46492,695.35862 149.7361,571.37101 62.276078,503.96229 7.6135406,461.83149 -59.507422,442.00469 -126.45791,444.67894 z m -270.35711,189.87958 c -12.03041,26.68377 -21.5424,56.23518 -28.06764,88.20972 -32.35669,158.50166 34.11173,297.51559 134.03295,376.32329 99.92216,78.8078 238.655676,98.948 341.097188,16.3241 l -22.870375,-66.6884 c -16.464275,17.6575 -36.1462752,33.5958 -56.538538,42.7155 -70.614524,31.5796 -154.131045,12.7251 -223.024445,-41.6111 -82.51299,-65.0782 -138.71243,-179.59139 -111.12134,-314.74886 2.50377,-12.27054 5.48961,-23.98663 8.91445,-35.1684 6.22645,-24.05172 18.34395,-43.42944 30.40371,-65.7646 z"
       id="path3772-1"
       inkscape:connector-curvature="0"
       sodipodi:nodetypes="cccssccccsccccsccsscccc" />
    <path
       style="font-size:medium;font-style:normal;font-variant:normal;font-weight:normal;font-stretch:normal;text-indent:0;text-align:start;text-decoration:none;line-height:normal;letter-spacing:normal;word-spacing:normal;text-transform:none;direction:ltr;block-progression:tb;writing-mode:lr-tb;text-anchor:start;baseline-shift:baseline;color:#000000;fill:#7a198d;fill-opacity:1;stroke:none;stroke-width:6.84456348;marker:none;visibility:visible;display:inline;overflow:visible;enable-background:accumulate;font-family:Sans;-inkscape-font-specification:Sans"
       d="m -622.49444,25.680423 c -47.50494,20.990725 -95.05573,54.393112 -140.90644,101.956717 -120.66543,125.16892 -92.30084,366.45942 81.33623,481.71676 152.89564,101.4948 309.79073,92.16611 408.39868,7.44627 98.60884,-84.71983 135.19961,-239.84064 68.16296,-410.11796 -18.52082,-47.0403 -47.9036,-89.86576 -85.05984,-124.582387 l -42.67333,45.823247 c 30.21308,28.22894 54.25655,63.44319 69.30856,101.67077 59.60595,151.40454 25.16886,274.4876 -50.69243,339.66472 -75.86127,65.17715 -197.18928,77.69971 -332.79122,-12.31452 -142.11986,-94.33721 -158.68405,-294.54811 -70.7401,-385.77484 41.05579,-42.58903 81.767,-70.9362 120.8597,-88.209727 l -25.20277,-57.27905 z"
       id="path3774-5"
       inkscape:connector-curvature="0" />
    <path
       style="font-size:medium;font-style:normal;font-variant:normal;font-weight:normal;font-stretch:normal;text-indent:0;text-align:start;text-decoration:none;line-height:normal;letter-spacing:normal;word-spacing:normal;text-transform:none;direction:ltr;block-progression:tb;writing-mode:lr-tb;text-anchor:start;baseline-shift:baseline;color:#000000;fill:#7a198d;fill-opacity:1;stroke:none;stroke-width:6.84456348;marker:none;visibility:visible;display:inline;overflow:visible;enable-background:accumulate;font-family:Sans;-inkscape-font-specification:Sans"
       d="m -879.67826,-462.0511 c -51.21755,-2.64583 -106.31359,6.80844 -163.81804,31.5044 -123.9867,53.24752 -188.6231,188.2107 -172.1231,322.48011 16.5,134.270325 116.0308,268.72211 309.59278,323.91345 39.80664,11.35316 76.4478,17.54756 110.2626,19.18895 l 3.1499,-62.43509 c -28.2601,-1.37011 -60.35104,-6.66361 -96.22879,-16.89685 -173.69299,-49.52668 -251.14429,-161.7715974 -264.62919,-271.50267 -13.4839,-109.73108 38.8572,-216.06206 134.6067,-257.18293 132.78745,-57.02608 235.3701,-21.4755 311.31112,53.55637 l 22.6156,-64.28907 c -53.27775,-44.85088 -119.81768,-74.46551 -194.73958,-78.33667 z"
       id="path3776-2"
       inkscape:connector-curvature="0"
       sodipodi:nodetypes="cssccccssccc" />
    <path
       style="font-size:medium;font-style:normal;font-variant:normal;font-weight:normal;font-stretch:normal;text-indent:0;text-align:start;text-decoration:none;line-height:normal;letter-spacing:normal;word-spacing:normal;text-transform:none;direction:ltr;block-progression:tb;writing-mode:lr-tb;text-anchor:start;baseline-shift:baseline;color:#000000;fill:#7a198d;fill-opacity:1;stroke:none;stroke-width:6.84456348;marker:none;visibility:visible;display:inline;overflow:visible;enable-background:accumulate;font-family:Sans;-inkscape-font-specification:Sans"
       d="m -310.61051,-721.52423 c -208.29226,10.25794 -393.71782,166.0616 -422.71934,376.60924 -18.5071,134.36565 -3.81158,243.36264 35.79894,326.2037 39.61144,82.842 105.03603,138.58688 181.86143,162.67249 153.6508,48.17214 346.48505,-25.65919 489.735833,-208.781664 C 52.490066,-165.07069 99.53404,-285.36036 94.639191,-399.33009 89.743441,-513.2998 28.440203,-620.69758 -99.537684,-679.99738 -169.1276,-712.24234 -241.18006,-724.94448 -310.61051,-721.52423 z m 2.29116,62.72005 c 59.85432,-2.99505 122.08959,7.83848 182.4333,35.79982 109.669666,50.81621 153.747966,131.80877 157.804228,226.25138 4.056275,94.44352 -36.6035997,202.77149 -107.39865,293.26872 C -206.95652,64.587098 -375.46413,122.1356 -496.76739,84.10506 -557.41903,65.090248 -607.91349,23.197735 -640.82373,-45.631515 c -32.91117,-68.830175 -47.62502,-165.336645 -30.35882,-290.691615 24.63092,-178.81693 183.30029,-313.4969 362.8632,-322.48105 z"
       id="path3778-7"
       inkscape:connector-curvature="0" />
    <path
       style="font-size:medium;font-style:normal;font-variant:normal;font-weight:normal;font-stretch:normal;text-indent:0;text-align:start;text-decoration:none;line-height:normal;letter-spacing:normal;word-spacing:normal;text-transform:none;direction:ltr;block-progression:tb;writing-mode:lr-tb;text-anchor:start;baseline-shift:baseline;color:#000000;fill:#7a198d;fill-opacity:1;stroke:none;stroke-width:6.84456348;marker:none;visibility:visible;display:inline;overflow:visible;enable-background:accumulate;font-family:Sans;-inkscape-font-specification:Sans"
       d="m 287.0968,-840.37874 c -143.16375,8.78349 -282.2748094,96.87131 -322.195097,255.75051 l 61.00265,15.46617 c 37.60345,-149.66138 180.077917,-221.07314 316.466217,-207.63692 136.3883,13.43622 262.06308,107.49405 266.92044,307.87439 2.019,83.35706 -20.35838,166.1954 -53.28696,215.12361 l 53.85972,31.1763 c 43.13242,-64.0893 64.42752,-153.87902 62.14812,-248.01735 -5.51061,-227.30803 -160.85139,-352.55577 -323.6275,-368.59104 -20.34644,-2.00439 -40.83576,-2.40022 -61.28759,-1.14567 z M 70.008291,-296.80059 38.140066,-226.68554 C 118.7339,-106.4747 259.74406,-61.314989 387.04831,-87.15929 l 10.54291,-67.93935 c -17.92879,7.36379 -50.95264,11.73075 -76.07478,12.33286 -100.28228,2.32874 -199.49789,-46.49133 -251.508149,-154.03481 z"
       id="path3780-6"
       inkscape:connector-curvature="0"
       sodipodi:nodetypes="sccsccccsscccccc" />
    <path
       style="font-size:medium;font-style:normal;font-variant:normal;font-weight:normal;font-stretch:normal;text-indent:0;text-align:start;text-decoration:none;line-height:normal;letter-spacing:normal;word-spacing:normal;text-transform:none;direction:ltr;block-progression:tb;writing-mode:lr-tb;text-anchor:start;baseline-shift:baseline;color:#000000;fill:#7a198d;fill-opacity:1;stroke:none;stroke-width:6.84456348;marker:none;visibility:visible;display:inline;overflow:visible;enable-background:accumulate;font-family:Sans;-inkscape-font-specification:Sans"
       d="m 518.21727,266.53836 c -107.02469,1.08601 -208.51405,75.27475 -246.58679,219.66559 -38.48965,145.96167 -0.1278,288.40227 73.60401,391.50272 l 50.97836,-36.37265 C 332.42414,752.14367 298.77344,628.1845 332.06034,501.95616 364.81201,377.74219 438.86613,330.0732 519.07599,329.25938 c 80.21085,-0.81567 170.2224,50.65849 224.24796,147.49399 91.50803,164.01969 79.67835,329.72018 12.88733,416.70459 -43.63016,56.82265 -92.50256,78.47963 -143.48358,79.04508 l 0.86154,62.72006 c 69.6998,-0.7698 139.19344,-34.3051 192.45759,-103.67411 C 893.2493,817.97976 899.2613,627.84724 798.0277,446.39456 734.20885,332.00785 625.24379,265.45327 518.21909,266.53836 z"
       id="path3782-1"
       inkscape:connector-curvature="0" />
    <path
       style="font-size:medium;font-style:normal;font-variant:normal;font-weight:normal;font-stretch:normal;text-indent:0;text-align:start;text-decoration:none;line-height:normal;letter-spacing:normal;word-spacing:normal;text-transform:none;direction:ltr;block-progression:tb;writing-mode:lr-tb;text-anchor:start;baseline-shift:baseline;color:#000000;fill:#7a198d;fill-opacity:1;stroke:none;stroke-width:6.84456348;marker:none;visibility:visible;display:inline;overflow:visible;enable-background:accumulate;font-family:Sans;-inkscape-font-specification:Sans"
       d="M 584.08821,-260.42885 C 496.6382,-254.11074 423.17342,-204.5859 374.4469,-136.70611 276.99454,-0.94470206 271.18237,215.50777 428.57516,340.71517 L 467.52488,291.4552 C 338.3895,188.72592 345.54519,11.233285 425.42526,-100.04753 c 39.93955,-55.63948 96.3799,-92.8498 162.95935,-97.66031 66.5783,-4.81052 146.81119,22.3535 235.12985,107.6846 88.24917,85.2513878 101.43534,193.51978 68.73487,289.54604 -22.98658,67.50862 -64.41265,110.77584 -115.45893,135.2491 -21.89425,10.76296 -40.97865,15.06485 -64.72427,20.38585 l 31.25782,57.72903 c 90.70421,-22.1372 171.82508,-86.17427 208.2098,-193.03038 39.2952,-115.39299 21.05028,-253.17704 -84.48717,-355.13008 -97.33763,-94.04577 -195.50835,-131.47237 -282.95837,-125.15517 z"
       id="path3784-4"
       inkscape:connector-curvature="0"
       sodipodi:nodetypes="csccsscccccccc" />
    <path
       style="font-size:medium;font-style:normal;font-variant:normal;font-weight:normal;font-stretch:normal;text-indent:0;text-align:start;text-decoration:none;line-height:normal;letter-spacing:normal;word-spacing:normal;text-transform:none;direction:ltr;block-progression:tb;writing-mode:lr-tb;text-anchor:start;baseline-shift:baseline;color:#000000;fill:#7a198d;fill-opacity:1;stroke:none;stroke-width:6.84456348;marker:none;visibility:visible;display:inline;overflow:visible;enable-background:accumulate;font-family:Sans;-inkscape-font-specification:Sans"
       d="m 145.90342,200.66837 c -14.85674,0.9073 -29.78964,2.94369 -44.39074,6.01384 -58.407202,12.28155 -113.844164,41.58459 -153.794689,87.35009 -39.950538,45.76642 -63.142601,108.56441 -55.846621,181.28864 l 62.433246,-6.3007 c -5.672,-56.54129 11.0709,-99.84057 40.6690494,-133.74702 29.5972256,-33.90553 73.2878376,-57.54024 119.7122846,-67.30243 46.42539,-9.76218 95.08784,-5.53544 134.31986,12.88825 39.23202,18.42277 69.45052,49.61099 83.91424,99.95147 l 60.42888,-17.46964 C 374.10601,296.36561 329.29351,249.34823 275.64091,224.15186 235.4008,205.25527 190.47294,197.95199 145.90342,200.66837 z m 118.28176,445.63097 c -32.37043,29.34246 -71.09111,44.10395 -110.26255,44.10395 l 0,62.72101 c 55.07029,0 109.13995,-21.24824 152.36216,-60.42985 l -42.09961,-46.39511 z"
       id="path3786-2"
       inkscape:connector-curvature="0" />
    <path
       style="font-size:medium;font-style:normal;font-variant:normal;font-weight:normal;font-stretch:normal;text-indent:0;text-align:start;text-decoration:none;line-height:normal;letter-spacing:normal;word-spacing:normal;text-transform:none;direction:ltr;block-progression:tb;writing-mode:lr-tb;text-anchor:start;baseline-shift:baseline;color:#000000;fill:#7a198d;fill-opacity:1;stroke:none;stroke-width:6.84456348;marker:none;visibility:visible;display:inline;overflow:visible;enable-background:accumulate;font-family:Sans;-inkscape-font-specification:Sans"
       d="m -57.437122,-110.6437 -7.733137,62.43416 c 62.0849994,7.671738 121.3601,37.628213 157.804237,83.054613 C 129.07814,80.271485 145.32618,140.2147 120.70078,219.8564 l 60.14291,18.3293 C 210.69574,141.64071 190.1128,56.069498 141.60802,-4.3906144 93.102291,-64.851615 19.273728,-101.16561 -57.437122,-110.6437 z"
       id="path3788-3"
       inkscape:connector-curvature="0" />
    <path
       style="font-size:medium;font-style:normal;font-variant:normal;font-weight:normal;font-stretch:normal;text-indent:0;text-align:start;text-decoration:none;line-height:normal;letter-spacing:normal;word-spacing:normal;text-transform:none;direction:ltr;block-progression:tb;writing-mode:lr-tb;text-anchor:start;baseline-shift:baseline;color:#000000;fill:#7a198d;fill-opacity:1;stroke:none;stroke-width:6.84456348;marker:none;visibility:visible;display:inline;overflow:visible;enable-background:accumulate;font-family:Sans;-inkscape-font-specification:Sans"
       d="m -375.33582,-1676.9388 c -88.14833,2.0364 -169.46808,22.9648 -229.40303,57.565 l -13.17326,7.7332 -2.29116,14.8927 c -55.20509,363.4826 64.21667,678.03527 211.58602,922.76717 l 59.56929,-23.13252 c -143.10229,-234.8038 -257.60172,-531.83005 -210.43953,-874.43205 92.35489,-45.98 257.25529,-59.4904 398.37528,-3.7236 -121.69094,247.8763 -199.5281,648.23842 -156.37179,905.009 l 61.86138,-10.31023 c -40.79735,-242.734 43.53482,-669.71037 164.677711,-896.70307 l 15.464437,-28.9263 -29.498258,-14.3199 c -87.1283,-41.6056 -182.20877,-58.4566 -270.35709,-56.4194 z"
       id="path3790-2"
       inkscape:connector-curvature="0"
       sodipodi:nodetypes="cccccccccccccc" />
  </g>
</svg>
